<svg xmlns="http://www.w3.org/2000/svg" width="184.463" height="21" viewBox="98 63 184.463 21"><path d="M200.407 69.254V65.03h-14.232v16.825h14.449v-4.224h-8.881v-2.088h7.873v-4.224h-7.873v-2.065h8.664Zm-41.615 12.601V65.03h-5.04v8.64l-6.649-8.64h-4.656v16.825h5.064v-8.592l6.625 8.592h4.656Zm117.382 0h6.289l-3.313-5.472a5.388 5.388 0 0 0 2.469-3.512 8.056 8.056 0 0 0 .195-1.816c0-3.632-2.338-5.782-6.448-6.006a13.405 13.405 0 0 0-.728-.02h-8.137v16.826h5.569v-4.368h2.088l2.016 4.368Zm-58.967 0h6.288l-3.312-5.472c1.729-1.056 2.664-2.88 2.664-5.328 0-3.632-2.339-5.782-6.449-6.006a13.405 13.405 0 0 0-.727-.02h-8.137v16.826h5.568v-4.368h2.089l2.016 4.368Zm-37.151-12.433V65.03H164.91v4.392h4.776v12.433h5.568V69.422h4.8Zm70.847-4.56a10.245 10.245 0 0 0-4.855 1.154 8.193 8.193 0 0 0-4.386 7.414 8.389 8.389 0 0 0 2.386 5.994c1.317 1.332 3.108 2.238 5.2 2.55a11.182 11.182 0 0 0 1.655.122 10.055 10.055 0 0 0 4.949-1.233 8.333 8.333 0 0 0 4.291-7.433 8.298 8.298 0 0 0-6.072-8.108 10.79 10.79 0 0 0-3.168-.46ZM135.248 81.855V65.03h-5.569v16.825h5.569Zm100.054 0V65.03h-5.568v16.825h5.568ZM109.812 84v-9.188H119V84h-9.187ZM98 84v-9.188h9.188V84H98Zm0-11.813V63h9.188v9.187H98ZM109.813 63H119v9.187h-9.187V63Zm144.297 8.73a3.387 3.387 0 0 0-3.136-2.236c-1.944 0-3.6 1.656-3.6 3.96a4.355 4.355 0 0 0 .438 1.93 3.576 3.576 0 0 0 3.162 2.08 3.35 3.35 0 0 0 2.983-1.937 4.578 4.578 0 0 0 .474-2.072 4.61 4.61 0 0 0-.321-1.725Zm17.96 1.533v-4.009h2.568a2.27 2.27 0 0 1 .835.145c.517.203.86.616.995 1.205a2.75 2.75 0 0 1 .066.618 2.76 2.76 0 0 1-.12.842c-.204.639-.664 1.042-1.333 1.161a2.515 2.515 0 0 1-.443.038h-2.568Zm-58.968 0v-4.009h2.569a2.27 2.27 0 0 1 .835.145c.516.203.86.616.995 1.205a2.75 2.75 0 0 1 .066.618 2.76 2.76 0 0 1-.12.842c-.204.639-.665 1.042-1.333 1.161a2.515 2.515 0 0 1-.443.038h-2.569Z" fill="rgba(33, 33, 33, 1)" fill-rule="evenodd" data-name="logo"/></svg>