<svg xmlns="http://www.w3.org/2000/svg" width="21.984" height="22.008" viewBox="1176 63 21.984 22.008"><path d="M1185 63a8.808 8.808 0 0 0-3.516.726 9.072 9.072 0 0 0-2.314 1.4 8.414 8.414 0 0 0-.545.5 9.438 9.438 0 0 0-1.83 2.676 10.714 10.714 0 0 0-.092.206A8.882 8.882 0 0 0 1176 72c0 1.218.234 2.383.703 3.492a9.634 9.634 0 0 0 1.56 2.491 9.02 9.02 0 0 0 .362.392 9.076 9.076 0 0 0 2.5 1.757 10.422 10.422 0 0 0 .36.165A9.05 9.05 0 0 0 1185 81a8.767 8.767 0 0 0 3-.516 9.042 9.042 0 0 0 2.602-1.453l5.671 5.672a1.02 1.02 0 0 0 .392.25 1.021 1.021 0 0 0 .335.055.956.956 0 0 0 .409-.086.94.94 0 0 0 .294-.219.95.95 0 0 0 .281-.674 1.243 1.243 0 0 0 0-.03 1.038 1.038 0 0 0-.065-.372.937.937 0 0 0-.216-.33l-5.672-5.672a8.972 8.972 0 0 0 1.453-2.625 8.782 8.782 0 0 0 .516-3 8.635 8.635 0 0 0-.727-3.492 8.963 8.963 0 0 0-1.921-2.883 8.805 8.805 0 0 0-2.603-1.786 10.125 10.125 0 0 0-.257-.113A8.643 8.643 0 0 0 1185 63Zm0 1.992c.938 0 1.843.188 2.719.563a7.247 7.247 0 0 1 1.986 1.271 6.846 6.846 0 0 1 .24.229 7.14 7.14 0 0 1 1.456 2.126 8.096 8.096 0 0 1 .044.1 6.98 6.98 0 0 1 .54 2.719 6.98 6.98 0 0 1-.54 2.719 7.233 7.233 0 0 1-1.268 1.983 6.815 6.815 0 0 1-.232.243 7.164 7.164 0 0 1-2.226 1.5 6.84 6.84 0 0 1-2.719.563c-.953 0-1.86-.188-2.719-.563a7.292 7.292 0 0 1-1.758-1.054 6.65 6.65 0 0 1-.492-.446 6.832 6.832 0 0 1-1.468-2.206 7.715 7.715 0 0 1-.008-.02 6.722 6.722 0 0 1-.563-2.72 6.723 6.723 0 0 1 .563-2.718 6.852 6.852 0 0 1 1.462-2.212 6.597 6.597 0 0 1 .014-.014 6.993 6.993 0 0 1 1.928-1.354 8.07 8.07 0 0 1 .322-.146 6.723 6.723 0 0 1 2.719-.563Z" fill="rgba(0, 0, 0, 1)" fill-rule="evenodd" data-name="search"/></svg>